<mxfile host="Electron" modified="2025-03-09T21:56:15.358Z" agent="Mozilla/5.0 (Windows NT 10.0; Win64; x64) AppleWebKit/537.36 (KHTML, like Gecko) draw.io/24.1.0 Chrome/120.0.6099.109 Electron/28.1.0 Safari/537.36" etag="oChhaK2aKIoNfyF2aBh0" version="24.1.0" type="device">
  <diagram name="Sheet 1" id="noxEhjXfcJPRch1m8VZ3">
    <mxGraphModel dx="1195" dy="697" grid="1" gridSize="1.9685" guides="1" tooltips="1" connect="1" arrows="1" fold="1" page="1" pageScale="1" pageWidth="827" pageHeight="1169" math="0" shadow="0">
      <root>
        <mxCell id="0" />
        <mxCell id="1" parent="0" />
        <mxCell id="JBeKq6UBt9uG4QoYx59_-4" value="" style="rounded=0;whiteSpace=wrap;html=1;fillColor=none;strokeWidth=1;" parent="1" vertex="1">
          <mxGeometry x="39.37" y="39.37" width="748.03" height="1090.63" as="geometry" />
        </mxCell>
        <mxCell id="JBeKq6UBt9uG4QoYx59_-16" value="" style="endArrow=none;html=1;rounded=0;curved=0;endSize=6;targetPerimeterSpacing=0;jumpSize=6;strokeColor=default;exitX=0.5;exitY=0.018;exitDx=0;exitDy=0;exitPerimeter=0;strokeWidth=1;" parent="1" source="JBeKq6UBt9uG4QoYx59_-4" edge="1">
          <mxGeometry width="50" height="50" relative="1" as="geometry">
            <mxPoint x="413.37" y="32.68" as="sourcePoint" />
            <mxPoint x="413.37" y="19.68" as="targetPoint" />
          </mxGeometry>
        </mxCell>
        <mxCell id="JBeKq6UBt9uG4QoYx59_-18" value="" style="endArrow=none;html=1;rounded=0;entryX=0.026;entryY=0.5;entryDx=0;entryDy=0;entryPerimeter=0;strokeWidth=1;" parent="1" target="JBeKq6UBt9uG4QoYx59_-4" edge="1">
          <mxGeometry width="50" height="50" relative="1" as="geometry">
            <mxPoint x="19.69" y="584.67" as="sourcePoint" />
            <mxPoint x="27.69" y="584.67" as="targetPoint" />
          </mxGeometry>
        </mxCell>
        <mxCell id="JBeKq6UBt9uG4QoYx59_-20" value="" style="endArrow=none;html=1;rounded=0;exitX=0.974;exitY=0.5;exitDx=0;exitDy=0;exitPerimeter=0;strokeWidth=1;" parent="1" source="JBeKq6UBt9uG4QoYx59_-4" edge="1">
          <mxGeometry width="50" height="50" relative="1" as="geometry">
            <mxPoint x="797" y="584.68" as="sourcePoint" />
            <mxPoint x="807" y="584.68" as="targetPoint" />
          </mxGeometry>
        </mxCell>
        <mxCell id="JBeKq6UBt9uG4QoYx59_-23" value="" style="endArrow=none;html=1;rounded=0;entryX=1;entryY=0.75;entryDx=0;entryDy=0;exitX=0;exitY=0.75;exitDx=0;exitDy=0;strokeWidth=1;" parent="1" edge="1">
          <mxGeometry width="50" height="50" relative="1" as="geometry">
            <mxPoint x="39.3" y="944.8825000000002" as="sourcePoint" />
            <mxPoint x="787.49" y="944.8825000000002" as="targetPoint" />
          </mxGeometry>
        </mxCell>
        <mxCell id="JBeKq6UBt9uG4QoYx59_-25" value="" style="endArrow=none;html=1;rounded=0;entryX=1;entryY=0.75;entryDx=0;entryDy=0;exitX=0;exitY=0.75;exitDx=0;exitDy=0;strokeWidth=1;" parent="1" edge="1">
          <mxGeometry width="50" height="50" relative="1" as="geometry">
            <mxPoint x="39.3" y="984.2510000000001" as="sourcePoint" />
            <mxPoint x="787.49" y="984.2510000000001" as="targetPoint" />
          </mxGeometry>
        </mxCell>
        <mxCell id="VQGSf6ayIFre-QUfzGoe-1" value="" style="endArrow=none;html=1;rounded=0;strokeWidth=1;" parent="1" edge="1">
          <mxGeometry width="50" height="50" relative="1" as="geometry">
            <mxPoint x="547.24" y="1130" as="sourcePoint" />
            <mxPoint x="547.24" y="944.9" as="targetPoint" />
          </mxGeometry>
        </mxCell>
        <mxCell id="VQGSf6ayIFre-QUfzGoe-2" value="" style="endArrow=none;html=1;rounded=0;strokeWidth=1;" parent="1" edge="1">
          <mxGeometry width="50" height="50" relative="1" as="geometry">
            <mxPoint x="307.08849999999995" y="1129.9985" as="sourcePoint" />
            <mxPoint x="307.08849999999995" y="944.9" as="targetPoint" />
          </mxGeometry>
        </mxCell>
        <mxCell id="VQGSf6ayIFre-QUfzGoe-3" value="" style="endArrow=none;html=1;rounded=0;entryX=1;entryY=0.75;entryDx=0;entryDy=0;exitX=0;exitY=0.75;exitDx=0;exitDy=0;strokeWidth=1;" parent="1" edge="1">
          <mxGeometry width="50" height="50" relative="1" as="geometry">
            <mxPoint x="307.1" y="1023.6195" as="sourcePoint" />
            <mxPoint x="787.5" y="1023.6195" as="targetPoint" />
          </mxGeometry>
        </mxCell>
        <mxCell id="VQGSf6ayIFre-QUfzGoe-4" value="" style="endArrow=none;html=1;rounded=0;entryX=1;entryY=0.75;entryDx=0;entryDy=0;exitX=0;exitY=0.75;exitDx=0;exitDy=0;strokeWidth=1;" parent="1" edge="1">
          <mxGeometry width="50" height="50" relative="1" as="geometry">
            <mxPoint x="547.2" y="1090.548" as="sourcePoint" />
            <mxPoint x="787.5" y="1090.548" as="targetPoint" />
          </mxGeometry>
        </mxCell>
        <mxCell id="VQGSf6ayIFre-QUfzGoe-5" value="" style="endArrow=none;html=1;rounded=0;strokeWidth=1;" parent="1" edge="1">
          <mxGeometry width="50" height="50" relative="1" as="geometry">
            <mxPoint x="586.6084999999999" y="1129.9985" as="sourcePoint" />
            <mxPoint x="586.6084999999999" y="1090.5" as="targetPoint" />
          </mxGeometry>
        </mxCell>
        <mxCell id="VQGSf6ayIFre-QUfzGoe-6" value="" style="endArrow=none;html=1;rounded=0;strokeWidth=1;" parent="1" edge="1">
          <mxGeometry width="50" height="50" relative="1" as="geometry">
            <mxPoint x="728.347" y="1129.9969999999998" as="sourcePoint" />
            <mxPoint x="728.347" y="1090.4985" as="targetPoint" />
          </mxGeometry>
        </mxCell>
        <mxCell id="VQGSf6ayIFre-QUfzGoe-7" value="" style="endArrow=none;html=1;rounded=0;strokeWidth=1;" parent="1" edge="1">
          <mxGeometry width="50" height="50" relative="1" as="geometry">
            <mxPoint x="173.22699999999986" y="984.3" as="sourcePoint" />
            <mxPoint x="173.22699999999986" y="944.8784999999999" as="targetPoint" />
          </mxGeometry>
        </mxCell>
        <mxCell id="VQGSf6ayIFre-QUfzGoe-9" value="&lt;font face=&quot;Verdana&quot; style=&quot;font-size: 8px;&quot;&gt;Currency&lt;/font&gt;" style="text;html=1;align=left;verticalAlign=middle;whiteSpace=wrap;rounded=0;fillColor=none;fontStyle=1" parent="1" vertex="1">
          <mxGeometry x="41.339999999999996" y="944.88" width="25.59" height="12.29" as="geometry" />
        </mxCell>
        <mxCell id="VQGSf6ayIFre-QUfzGoe-10" value="&lt;font face=&quot;Verdana&quot; style=&quot;font-size: 8px;&quot;&gt;Prices variation&lt;/font&gt;" style="text;html=1;align=left;verticalAlign=middle;whiteSpace=wrap;rounded=0;fontStyle=1" parent="1" vertex="1">
          <mxGeometry x="175.2" y="944.88" width="78.74" height="12.29" as="geometry" />
        </mxCell>
        <mxCell id="VQGSf6ayIFre-QUfzGoe-11" value="&lt;font face=&quot;Verdana&quot;&gt;&lt;span style=&quot;font-size: 8px;&quot;&gt;Conversion rate&lt;/span&gt;&lt;/font&gt;" style="text;html=1;align=left;verticalAlign=middle;whiteSpace=wrap;rounded=0;fontStyle=1" parent="1" vertex="1">
          <mxGeometry x="309.06" y="944.88" width="90.55" height="12.29" as="geometry" />
        </mxCell>
        <mxCell id="VQGSf6ayIFre-QUfzGoe-12" value="&lt;font face=&quot;Verdana&quot; style=&quot;font-size: 8px;&quot;&gt;Maximum weight (per unit)&lt;/font&gt;" style="text;html=1;align=left;verticalAlign=middle;whiteSpace=wrap;rounded=0;fontStyle=1" parent="1" vertex="1">
          <mxGeometry x="549.22" y="944.88" width="159.44" height="12.29" as="geometry" />
        </mxCell>
        <mxCell id="VQGSf6ayIFre-QUfzGoe-13" value="&lt;font face=&quot;Verdana&quot; style=&quot;font-size: 8px;&quot;&gt;Created by&lt;/font&gt;" style="text;html=1;align=left;verticalAlign=middle;whiteSpace=wrap;rounded=0;fontStyle=1" parent="1" vertex="1">
          <mxGeometry x="549.22" y="984.25" width="57.08" height="12.29" as="geometry" />
        </mxCell>
        <mxCell id="VQGSf6ayIFre-QUfzGoe-14" value="&lt;font face=&quot;Verdana&quot; style=&quot;font-size: 8px;&quot;&gt;Project title&lt;/font&gt;" style="text;html=1;align=left;verticalAlign=middle;whiteSpace=wrap;rounded=0;fontStyle=1" parent="1" vertex="1">
          <mxGeometry x="309.05850000000004" y="984.2484999999999" width="57.08" height="12.29" as="geometry" />
        </mxCell>
        <mxCell id="VQGSf6ayIFre-QUfzGoe-15" value="&lt;font face=&quot;Verdana&quot; style=&quot;font-size: 8px;&quot;&gt;Drawing title&lt;/font&gt;" style="text;html=1;align=left;verticalAlign=middle;whiteSpace=wrap;rounded=0;fontStyle=1" parent="1" vertex="1">
          <mxGeometry x="309.06" y="1023.62" width="64.96" height="12.29" as="geometry" />
        </mxCell>
        <mxCell id="VQGSf6ayIFre-QUfzGoe-16" value="&lt;font face=&quot;Verdana&quot; style=&quot;font-size: 8px;&quot;&gt;Drawing number&lt;/font&gt;" style="text;html=1;align=left;verticalAlign=middle;whiteSpace=wrap;rounded=0;fontStyle=1" parent="1" vertex="1">
          <mxGeometry x="549.22" y="1023.62" width="80.7" height="12.29" as="geometry" />
        </mxCell>
        <mxCell id="VQGSf6ayIFre-QUfzGoe-17" value="&lt;font face=&quot;Verdana&quot; style=&quot;font-size: 8px;&quot;&gt;Notes&lt;/font&gt;" style="text;html=1;align=left;verticalAlign=middle;whiteSpace=wrap;rounded=0;fontStyle=1" parent="1" vertex="1">
          <mxGeometry x="41.338499999999996" y="984.2484999999999" width="25.59" height="12.29" as="geometry" />
        </mxCell>
        <mxCell id="VQGSf6ayIFre-QUfzGoe-18" value="&lt;font face=&quot;Verdana&quot; style=&quot;font-size: 8px;&quot;&gt;Rev.&lt;/font&gt;" style="text;html=1;align=left;verticalAlign=middle;whiteSpace=wrap;rounded=0;fontStyle=1" parent="1" vertex="1">
          <mxGeometry x="549.22" y="1090.55" width="41.33" height="12.29" as="geometry" />
        </mxCell>
        <mxCell id="VQGSf6ayIFre-QUfzGoe-19" value="&lt;font face=&quot;Verdana&quot; style=&quot;font-size: 8px;&quot;&gt;Date of issue&lt;/font&gt;" style="text;html=1;align=left;verticalAlign=middle;whiteSpace=wrap;rounded=0;fontStyle=1" parent="1" vertex="1">
          <mxGeometry x="588" y="1090.55" width="61.61" height="12.29" as="geometry" />
        </mxCell>
        <mxCell id="VQGSf6ayIFre-QUfzGoe-20" value="&lt;font face=&quot;Verdana&quot; style=&quot;font-size: 8px;&quot;&gt;Sheet&lt;/font&gt;" style="text;html=1;align=left;verticalAlign=middle;whiteSpace=wrap;rounded=0;fontStyle=1" parent="1" vertex="1">
          <mxGeometry x="729.73" y="1090.55" width="61.61" height="12.29" as="geometry" />
        </mxCell>
        <mxCell id="xuHGBV2yemARD54Rfex9-2" value="&lt;font face=&quot;Verdana&quot; style=&quot;font-size: 20px; font-weight: normal;&quot;&gt;RON - EUR&lt;/font&gt;" style="text;html=1;align=left;verticalAlign=middle;whiteSpace=wrap;rounded=0;fillColor=none;fontStyle=1" parent="1" vertex="1">
          <mxGeometry x="41.34" y="964.57" width="118.11" height="12.29" as="geometry" />
        </mxCell>
        <mxCell id="xuHGBV2yemARD54Rfex9-3" value="&lt;span style=&quot;font-family: Verdana; font-size: 20px; font-weight: 400;&quot;&gt;±10%&lt;/span&gt;" style="text;html=1;align=left;verticalAlign=middle;whiteSpace=wrap;rounded=0;fillColor=none;fontStyle=1" parent="1" vertex="1">
          <mxGeometry x="175.2" y="964.57" width="129.92" height="12.29" as="geometry" />
        </mxCell>
        <mxCell id="xuHGBV2yemARD54Rfex9-4" value="&lt;span style=&quot;font-family: Verdana; font-size: 20px; font-weight: 400;&quot;&gt;1 EUR = 5 RON&lt;/span&gt;" style="text;html=1;align=left;verticalAlign=middle;whiteSpace=wrap;rounded=0;fillColor=none;fontStyle=1" parent="1" vertex="1">
          <mxGeometry x="311.03" y="964.57" width="204.72" height="12.29" as="geometry" />
        </mxCell>
        <mxCell id="xuHGBV2yemARD54Rfex9-5" value="&lt;font face=&quot;Verdana&quot; style=&quot;font-size: 20px; font-weight: normal;&quot;&gt;Train Network&lt;/font&gt;" style="text;html=1;align=left;verticalAlign=middle;whiteSpace=wrap;rounded=0;fillColor=none;fontStyle=1" parent="1" vertex="1">
          <mxGeometry x="311.03" y="1003.94" width="187" height="12.29" as="geometry" />
        </mxCell>
        <mxCell id="xuHGBV2yemARD54Rfex9-6" value="&lt;font face=&quot;Verdana&quot; style=&quot;font-size: 20px; font-weight: normal;&quot;&gt;35 grams&lt;/font&gt;" style="text;html=1;align=left;verticalAlign=middle;whiteSpace=wrap;rounded=0;fillColor=none;fontStyle=1" parent="1" vertex="1">
          <mxGeometry x="551.18" y="964.57" width="106.3" height="12.29" as="geometry" />
        </mxCell>
        <mxCell id="xuHGBV2yemARD54Rfex9-7" value="&lt;font face=&quot;Verdana&quot; style=&quot;font-size: 20px; font-weight: normal;&quot;&gt;teoelectric&lt;/font&gt;" style="text;html=1;align=left;verticalAlign=middle;whiteSpace=wrap;rounded=0;fillColor=none;fontStyle=1" parent="1" vertex="1">
          <mxGeometry x="551.17" y="1003.94" width="145.67" height="12.29" as="geometry" />
        </mxCell>
        <mxCell id="xuHGBV2yemARD54Rfex9-8" value="&lt;font face=&quot;Verdana&quot; style=&quot;font-size: 20px; font-weight: normal;&quot;&gt;33&lt;/font&gt;" style="text;html=1;align=center;verticalAlign=middle;whiteSpace=wrap;rounded=0;fillColor=none;fontStyle=1" parent="1" vertex="1">
          <mxGeometry x="557.0899999999999" y="1053.15" width="220.47" height="12.29" as="geometry" />
        </mxCell>
        <mxCell id="xuHGBV2yemARD54Rfex9-9" value="&lt;font face=&quot;Verdana&quot; style=&quot;font-size: 20px; font-weight: normal;&quot;&gt;Track Cost&lt;/font&gt;" style="text;html=1;align=left;verticalAlign=middle;whiteSpace=wrap;rounded=0;fillColor=none;fontStyle=1" parent="1" vertex="1">
          <mxGeometry x="311.03" y="1068.9" width="192.91" height="12.29" as="geometry" />
        </mxCell>
        <mxCell id="xuHGBV2yemARD54Rfex9-14" value="&lt;font face=&quot;Verdana&quot; style=&quot;font-size: 20px; font-weight: normal;&quot;&gt;1/1&lt;/font&gt;" style="text;html=1;align=left;verticalAlign=middle;whiteSpace=wrap;rounded=0;fillColor=none;fontStyle=1" parent="1" vertex="1">
          <mxGeometry x="735.934" y="1106.2939999999994" width="49.21" height="12.29" as="geometry" />
        </mxCell>
        <mxCell id="xuHGBV2yemARD54Rfex9-15" value="&lt;font face=&quot;Verdana&quot; style=&quot;font-size: 20px; font-weight: normal;&quot;&gt;-&lt;/font&gt;" style="text;html=1;align=center;verticalAlign=middle;whiteSpace=wrap;rounded=0;fillColor=none;fontStyle=1" parent="1" vertex="1">
          <mxGeometry x="651.5699999999999" y="1104.3300000000002" width="19.69" height="12.29" as="geometry" />
        </mxCell>
        <mxCell id="xuHGBV2yemARD54Rfex9-16" value="&lt;font face=&quot;Verdana&quot; style=&quot;font-size: 20px; font-weight: normal;&quot;&gt;-&lt;/font&gt;" style="text;html=1;align=center;verticalAlign=middle;whiteSpace=wrap;rounded=0;fillColor=none;fontStyle=1" parent="1" vertex="1">
          <mxGeometry x="557.0884999999998" y="1104.3285" width="19.69" height="12.29" as="geometry" />
        </mxCell>
        <mxCell id="v2AuxBMflL_ghMZSKkXt-2" value="&lt;font face=&quot;Verdana&quot;&gt;&lt;span style=&quot;font-size: 20px; font-weight: 400;&quot;&gt;The printer filament is&lt;/span&gt;&lt;/font&gt;" style="text;html=1;align=left;verticalAlign=middle;whiteSpace=wrap;rounded=0;fillColor=none;fontStyle=1" parent="1" vertex="1">
          <mxGeometry x="41.33" y="1003.94" width="253.95" height="12.29" as="geometry" />
        </mxCell>
        <mxCell id="v2AuxBMflL_ghMZSKkXt-3" value="&lt;font face=&quot;Verdana&quot;&gt;&lt;span style=&quot;font-size: 20px; font-weight: 400;&quot;&gt;calculated using default&lt;/span&gt;&lt;/font&gt;" style="text;html=1;align=left;verticalAlign=middle;whiteSpace=wrap;rounded=0;fillColor=none;fontStyle=1" parent="1" vertex="1">
          <mxGeometry x="41.33" y="1027.56" width="285.44" height="12.29" as="geometry" />
        </mxCell>
        <mxCell id="v2AuxBMflL_ghMZSKkXt-4" value="&lt;span style=&quot;font-family: Verdana; font-size: 20px; font-weight: 400;&quot;&gt;slicer settings.&lt;/span&gt;" style="text;html=1;align=left;verticalAlign=middle;whiteSpace=wrap;rounded=0;fillColor=none;fontStyle=1" parent="1" vertex="1">
          <mxGeometry x="41.34" y="1051.97" width="281.49" height="12.29" as="geometry" />
        </mxCell>
        <mxCell id="v2AuxBMflL_ghMZSKkXt-5" value="&lt;span style=&quot;font-family: Verdana; font-size: 20px; font-weight: 400;&quot;&gt;The cost does not include&lt;/span&gt;" style="text;html=1;align=left;verticalAlign=middle;whiteSpace=wrap;rounded=0;fillColor=none;fontStyle=1" parent="1" vertex="1">
          <mxGeometry x="41.32" y="1076.77" width="261.83" height="12.29" as="geometry" />
        </mxCell>
        <mxCell id="v2AuxBMflL_ghMZSKkXt-6" value="&lt;span style=&quot;font-family: Verdana; font-size: 20px; font-weight: 400;&quot;&gt;the consumables.&lt;/span&gt;" style="text;html=1;align=left;verticalAlign=middle;whiteSpace=wrap;rounded=0;fillColor=none;fontStyle=1" parent="1" vertex="1">
          <mxGeometry x="41.33" y="1102.36" width="185.05" height="12.29" as="geometry" />
        </mxCell>
        <mxCell id="zGnTky7noTmnoYsNpcN4-149" value="Assets" style="childLayout=tableLayout;recursiveResize=0;shadow=1;strokeWidth=1.5;rounded=0;glass=0;strokeColor=default;fillColor=default;aspect=fixed;fontSize=15;" parent="1" vertex="1">
          <mxGeometry x="112.99189999999999" y="118.11" width="599.2689999999998" height="336" as="geometry" />
        </mxCell>
        <mxCell id="zGnTky7noTmnoYsNpcN4-150" style="shape=tableRow;horizontal=0;startSize=0;swimlaneHead=0;swimlaneBody=0;top=0;left=0;bottom=0;right=0;dropTarget=0;collapsible=0;recursiveResize=0;expand=0;fontStyle=0;fillColor=#cdeb8b;strokeColor=default;fontSize=15;" parent="zGnTky7noTmnoYsNpcN4-149" vertex="1">
          <mxGeometry width="599.2689999999998" height="60" as="geometry" />
        </mxCell>
        <mxCell id="zGnTky7noTmnoYsNpcN4-151" value="Name" style="connectable=0;recursiveResize=0;align=center;fontStyle=1;html=1;fillColor=#cdeb8b;strokeColor=default;fontSize=15;" parent="zGnTky7noTmnoYsNpcN4-150" vertex="1">
          <mxGeometry width="113" height="60" as="geometry">
            <mxRectangle width="113" height="60" as="alternateBounds" />
          </mxGeometry>
        </mxCell>
        <mxCell id="zGnTky7noTmnoYsNpcN4-152" value="Quantity" style="connectable=0;recursiveResize=0;align=center;fontStyle=1;html=1;fillColor=#cdeb8b;strokeColor=default;fontSize=15;" parent="zGnTky7noTmnoYsNpcN4-150" vertex="1">
          <mxGeometry x="113" width="78" height="60" as="geometry">
            <mxRectangle width="78" height="60" as="alternateBounds" />
          </mxGeometry>
        </mxCell>
        <mxCell id="zGnTky7noTmnoYsNpcN4-153" value="Printer&lt;div&gt;Filament&lt;/div&gt;&lt;div&gt;(Grams)&lt;/div&gt;" style="connectable=0;recursiveResize=0;align=center;fontStyle=1;html=1;fillColor=#cdeb8b;strokeColor=default;fontSize=15;" parent="zGnTky7noTmnoYsNpcN4-150" vertex="1">
          <mxGeometry x="191" width="78" height="60" as="geometry">
            <mxRectangle width="78" height="60" as="alternateBounds" />
          </mxGeometry>
        </mxCell>
        <mxCell id="zGnTky7noTmnoYsNpcN4-154" value="Price / Unit&lt;br style=&quot;font-size: 15px;&quot;&gt;(RON)" style="connectable=0;recursiveResize=0;align=center;fontStyle=1;html=1;fillColor=#cdeb8b;strokeColor=default;fontSize=15;" parent="zGnTky7noTmnoYsNpcN4-150" vertex="1">
          <mxGeometry x="269" width="94" height="60" as="geometry">
            <mxRectangle width="94" height="60" as="alternateBounds" />
          </mxGeometry>
        </mxCell>
        <mxCell id="zGnTky7noTmnoYsNpcN4-155" value="Price / Unit&lt;br style=&quot;font-size: 15px;&quot;&gt;(EUR)" style="connectable=0;recursiveResize=0;align=center;fontStyle=1;html=1;fillColor=#cdeb8b;strokeColor=default;fontSize=15;" parent="zGnTky7noTmnoYsNpcN4-150" vertex="1">
          <mxGeometry x="363" width="94" height="60" as="geometry">
            <mxRectangle width="94" height="60" as="alternateBounds" />
          </mxGeometry>
        </mxCell>
        <mxCell id="zGnTky7noTmnoYsNpcN4-156" value="Subtotal&lt;br style=&quot;font-size: 15px;&quot;&gt;(RON)" style="connectable=0;recursiveResize=0;align=center;fontStyle=1;html=1;fillColor=#cdeb8b;strokeColor=default;fontSize=15;" parent="zGnTky7noTmnoYsNpcN4-150" vertex="1">
          <mxGeometry x="457" width="71" height="60" as="geometry">
            <mxRectangle width="71" height="60" as="alternateBounds" />
          </mxGeometry>
        </mxCell>
        <mxCell id="zGnTky7noTmnoYsNpcN4-157" value="Subtotal&lt;br style=&quot;font-size: 15px;&quot;&gt;(EUR)" style="connectable=0;recursiveResize=0;align=center;fontStyle=1;html=1;fillColor=#cdeb8b;strokeColor=default;fontSize=15;" parent="zGnTky7noTmnoYsNpcN4-150" vertex="1">
          <mxGeometry x="528" width="71" height="60" as="geometry">
            <mxRectangle width="71" height="60" as="alternateBounds" />
          </mxGeometry>
        </mxCell>
        <mxCell id="zGnTky7noTmnoYsNpcN4-234" style="shape=tableRow;horizontal=0;startSize=0;swimlaneHead=0;swimlaneBody=0;top=0;left=0;bottom=0;right=0;dropTarget=0;collapsible=0;recursiveResize=0;expand=0;fontStyle=0;strokeColor=default;fontSize=15;" parent="zGnTky7noTmnoYsNpcN4-149" vertex="1">
          <mxGeometry y="60" width="599.2689999999998" height="46" as="geometry" />
        </mxCell>
        <mxCell id="zGnTky7noTmnoYsNpcN4-235" value="Couplers" style="connectable=0;recursiveResize=0;align=center;whiteSpace=wrap;html=1;strokeColor=default;fontSize=15;" parent="zGnTky7noTmnoYsNpcN4-234" vertex="1">
          <mxGeometry width="113" height="46" as="geometry">
            <mxRectangle width="113" height="46" as="alternateBounds" />
          </mxGeometry>
        </mxCell>
        <mxCell id="zGnTky7noTmnoYsNpcN4-236" value="2" style="connectable=0;recursiveResize=0;align=center;whiteSpace=wrap;html=1;strokeColor=default;fontSize=15;" parent="zGnTky7noTmnoYsNpcN4-234" vertex="1">
          <mxGeometry x="113" width="78" height="46" as="geometry">
            <mxRectangle width="78" height="46" as="alternateBounds" />
          </mxGeometry>
        </mxCell>
        <mxCell id="zGnTky7noTmnoYsNpcN4-237" value="0.9" style="connectable=0;recursiveResize=0;align=center;whiteSpace=wrap;html=1;strokeColor=default;fontSize=15;" parent="zGnTky7noTmnoYsNpcN4-234" vertex="1">
          <mxGeometry x="191" width="78" height="46" as="geometry">
            <mxRectangle width="78" height="46" as="alternateBounds" />
          </mxGeometry>
        </mxCell>
        <mxCell id="zGnTky7noTmnoYsNpcN4-238" value="0.04" style="connectable=0;recursiveResize=0;align=center;whiteSpace=wrap;html=1;strokeColor=default;fontSize=15;" parent="zGnTky7noTmnoYsNpcN4-234" vertex="1">
          <mxGeometry x="269" width="94" height="46" as="geometry">
            <mxRectangle width="94" height="46" as="alternateBounds" />
          </mxGeometry>
        </mxCell>
        <mxCell id="zGnTky7noTmnoYsNpcN4-239" value="0.008" style="connectable=0;recursiveResize=0;align=center;whiteSpace=wrap;html=1;strokeColor=default;fontSize=15;" parent="zGnTky7noTmnoYsNpcN4-234" vertex="1">
          <mxGeometry x="363" width="94" height="46" as="geometry">
            <mxRectangle width="94" height="46" as="alternateBounds" />
          </mxGeometry>
        </mxCell>
        <mxCell id="zGnTky7noTmnoYsNpcN4-240" value="0.08" style="connectable=0;recursiveResize=0;align=center;whiteSpace=wrap;html=1;strokeColor=default;fontSize=15;" parent="zGnTky7noTmnoYsNpcN4-234" vertex="1">
          <mxGeometry x="457" width="71" height="46" as="geometry">
            <mxRectangle width="71" height="46" as="alternateBounds" />
          </mxGeometry>
        </mxCell>
        <mxCell id="zGnTky7noTmnoYsNpcN4-241" value="0.016" style="connectable=0;recursiveResize=0;align=center;whiteSpace=wrap;html=1;strokeColor=default;fontSize=15;" parent="zGnTky7noTmnoYsNpcN4-234" vertex="1">
          <mxGeometry x="528" width="71" height="46" as="geometry">
            <mxRectangle width="71" height="46" as="alternateBounds" />
          </mxGeometry>
        </mxCell>
        <mxCell id="zGnTky7noTmnoYsNpcN4-166" style="shape=tableRow;horizontal=0;startSize=0;swimlaneHead=0;swimlaneBody=0;top=0;left=0;bottom=0;right=0;dropTarget=0;collapsible=0;recursiveResize=0;expand=0;fontStyle=0;strokeColor=default;fontSize=15;" parent="zGnTky7noTmnoYsNpcN4-149" vertex="1">
          <mxGeometry y="106" width="599.2689999999998" height="46" as="geometry" />
        </mxCell>
        <mxCell id="zGnTky7noTmnoYsNpcN4-167" value="Curved15" style="connectable=0;recursiveResize=0;align=center;whiteSpace=wrap;html=1;strokeColor=default;fontSize=15;" parent="zGnTky7noTmnoYsNpcN4-166" vertex="1">
          <mxGeometry width="113" height="46" as="geometry">
            <mxRectangle width="113" height="46" as="alternateBounds" />
          </mxGeometry>
        </mxCell>
        <mxCell id="zGnTky7noTmnoYsNpcN4-168" value="1" style="connectable=0;recursiveResize=0;align=center;whiteSpace=wrap;html=1;strokeColor=default;fontSize=15;" parent="zGnTky7noTmnoYsNpcN4-166" vertex="1">
          <mxGeometry x="113" width="78" height="46" as="geometry">
            <mxRectangle width="78" height="46" as="alternateBounds" />
          </mxGeometry>
        </mxCell>
        <mxCell id="zGnTky7noTmnoYsNpcN4-169" value="9.3" style="connectable=0;recursiveResize=0;align=center;whiteSpace=wrap;html=1;strokeColor=default;fontSize=15;" parent="zGnTky7noTmnoYsNpcN4-166" vertex="1">
          <mxGeometry x="191" width="78" height="46" as="geometry">
            <mxRectangle width="78" height="46" as="alternateBounds" />
          </mxGeometry>
        </mxCell>
        <mxCell id="zGnTky7noTmnoYsNpcN4-170" value="0.93" style="connectable=0;recursiveResize=0;align=center;whiteSpace=wrap;html=1;strokeColor=default;fontSize=15;" parent="zGnTky7noTmnoYsNpcN4-166" vertex="1">
          <mxGeometry x="269" width="94" height="46" as="geometry">
            <mxRectangle width="94" height="46" as="alternateBounds" />
          </mxGeometry>
        </mxCell>
        <mxCell id="zGnTky7noTmnoYsNpcN4-171" value="0.186" style="connectable=0;recursiveResize=0;align=center;whiteSpace=wrap;html=1;strokeColor=default;fontSize=15;" parent="zGnTky7noTmnoYsNpcN4-166" vertex="1">
          <mxGeometry x="363" width="94" height="46" as="geometry">
            <mxRectangle width="94" height="46" as="alternateBounds" />
          </mxGeometry>
        </mxCell>
        <mxCell id="zGnTky7noTmnoYsNpcN4-172" value="0.93" style="connectable=0;recursiveResize=0;align=center;whiteSpace=wrap;html=1;strokeColor=default;fontSize=15;" parent="zGnTky7noTmnoYsNpcN4-166" vertex="1">
          <mxGeometry x="457" width="71" height="46" as="geometry">
            <mxRectangle width="71" height="46" as="alternateBounds" />
          </mxGeometry>
        </mxCell>
        <mxCell id="zGnTky7noTmnoYsNpcN4-173" value="0.186" style="connectable=0;recursiveResize=0;align=center;whiteSpace=wrap;html=1;strokeColor=default;fontSize=15;" parent="zGnTky7noTmnoYsNpcN4-166" vertex="1">
          <mxGeometry x="528" width="71" height="46" as="geometry">
            <mxRectangle width="71" height="46" as="alternateBounds" />
          </mxGeometry>
        </mxCell>
        <mxCell id="zGnTky7noTmnoYsNpcN4-242" style="shape=tableRow;horizontal=0;startSize=0;swimlaneHead=0;swimlaneBody=0;top=0;left=0;bottom=0;right=0;dropTarget=0;collapsible=0;recursiveResize=0;expand=0;fontStyle=0;strokeColor=default;fontSize=15;" parent="zGnTky7noTmnoYsNpcN4-149" vertex="1">
          <mxGeometry y="152" width="599.2689999999998" height="46" as="geometry" />
        </mxCell>
        <mxCell id="zGnTky7noTmnoYsNpcN4-243" value="Straight" style="connectable=0;recursiveResize=0;align=center;whiteSpace=wrap;html=1;strokeColor=default;fontSize=15;" parent="zGnTky7noTmnoYsNpcN4-242" vertex="1">
          <mxGeometry width="113" height="46" as="geometry">
            <mxRectangle width="113" height="46" as="alternateBounds" />
          </mxGeometry>
        </mxCell>
        <mxCell id="zGnTky7noTmnoYsNpcN4-244" value="1" style="connectable=0;recursiveResize=0;align=center;whiteSpace=wrap;html=1;strokeColor=default;fontSize=15;" parent="zGnTky7noTmnoYsNpcN4-242" vertex="1">
          <mxGeometry x="113" width="78" height="46" as="geometry">
            <mxRectangle width="78" height="46" as="alternateBounds" />
          </mxGeometry>
        </mxCell>
        <mxCell id="zGnTky7noTmnoYsNpcN4-245" value="12.1" style="connectable=0;recursiveResize=0;align=center;whiteSpace=wrap;html=1;strokeColor=default;fontSize=15;" parent="zGnTky7noTmnoYsNpcN4-242" vertex="1">
          <mxGeometry x="191" width="78" height="46" as="geometry">
            <mxRectangle width="78" height="46" as="alternateBounds" />
          </mxGeometry>
        </mxCell>
        <mxCell id="zGnTky7noTmnoYsNpcN4-246" value="1.21" style="connectable=0;recursiveResize=0;align=center;whiteSpace=wrap;html=1;strokeColor=default;fontSize=15;" parent="zGnTky7noTmnoYsNpcN4-242" vertex="1">
          <mxGeometry x="269" width="94" height="46" as="geometry">
            <mxRectangle width="94" height="46" as="alternateBounds" />
          </mxGeometry>
        </mxCell>
        <mxCell id="zGnTky7noTmnoYsNpcN4-247" value="0.242" style="connectable=0;recursiveResize=0;align=center;whiteSpace=wrap;html=1;strokeColor=default;fontSize=15;" parent="zGnTky7noTmnoYsNpcN4-242" vertex="1">
          <mxGeometry x="363" width="94" height="46" as="geometry">
            <mxRectangle width="94" height="46" as="alternateBounds" />
          </mxGeometry>
        </mxCell>
        <mxCell id="zGnTky7noTmnoYsNpcN4-248" value="1.21" style="connectable=0;recursiveResize=0;align=center;whiteSpace=wrap;html=1;strokeColor=default;fontSize=15;" parent="zGnTky7noTmnoYsNpcN4-242" vertex="1">
          <mxGeometry x="457" width="71" height="46" as="geometry">
            <mxRectangle width="71" height="46" as="alternateBounds" />
          </mxGeometry>
        </mxCell>
        <mxCell id="zGnTky7noTmnoYsNpcN4-249" value="0.242" style="connectable=0;recursiveResize=0;align=center;whiteSpace=wrap;html=1;strokeColor=default;fontSize=15;" parent="zGnTky7noTmnoYsNpcN4-242" vertex="1">
          <mxGeometry x="528" width="71" height="46" as="geometry">
            <mxRectangle width="71" height="46" as="alternateBounds" />
          </mxGeometry>
        </mxCell>
        <mxCell id="zGnTky7noTmnoYsNpcN4-174" style="shape=tableRow;horizontal=0;startSize=0;swimlaneHead=0;swimlaneBody=0;top=0;left=0;bottom=0;right=0;dropTarget=0;collapsible=0;recursiveResize=0;expand=0;fontStyle=0;strokeColor=default;fontSize=15;" parent="zGnTky7noTmnoYsNpcN4-149" vertex="1">
          <mxGeometry y="198" width="599.2689999999998" height="46" as="geometry" />
        </mxCell>
        <mxCell id="zGnTky7noTmnoYsNpcN4-175" value="Curved30" style="connectable=0;recursiveResize=0;align=center;whiteSpace=wrap;html=1;strokeColor=default;fontSize=15;" parent="zGnTky7noTmnoYsNpcN4-174" vertex="1">
          <mxGeometry width="113" height="46" as="geometry">
            <mxRectangle width="113" height="46" as="alternateBounds" />
          </mxGeometry>
        </mxCell>
        <mxCell id="zGnTky7noTmnoYsNpcN4-176" value="1" style="connectable=0;recursiveResize=0;align=center;whiteSpace=wrap;html=1;strokeColor=default;fontSize=15;" parent="zGnTky7noTmnoYsNpcN4-174" vertex="1">
          <mxGeometry x="113" width="78" height="46" as="geometry">
            <mxRectangle width="78" height="46" as="alternateBounds" />
          </mxGeometry>
        </mxCell>
        <mxCell id="zGnTky7noTmnoYsNpcN4-177" value="13.9" style="connectable=0;recursiveResize=0;align=center;whiteSpace=wrap;html=1;strokeColor=default;fontSize=15;" parent="zGnTky7noTmnoYsNpcN4-174" vertex="1">
          <mxGeometry x="191" width="78" height="46" as="geometry">
            <mxRectangle width="78" height="46" as="alternateBounds" />
          </mxGeometry>
        </mxCell>
        <mxCell id="zGnTky7noTmnoYsNpcN4-178" value="1.39" style="connectable=0;recursiveResize=0;align=center;whiteSpace=wrap;html=1;strokeColor=default;fontSize=15;" parent="zGnTky7noTmnoYsNpcN4-174" vertex="1">
          <mxGeometry x="269" width="94" height="46" as="geometry">
            <mxRectangle width="94" height="46" as="alternateBounds" />
          </mxGeometry>
        </mxCell>
        <mxCell id="zGnTky7noTmnoYsNpcN4-179" value="0.278" style="connectable=0;recursiveResize=0;align=center;whiteSpace=wrap;html=1;strokeColor=default;fontSize=15;" parent="zGnTky7noTmnoYsNpcN4-174" vertex="1">
          <mxGeometry x="363" width="94" height="46" as="geometry">
            <mxRectangle width="94" height="46" as="alternateBounds" />
          </mxGeometry>
        </mxCell>
        <mxCell id="zGnTky7noTmnoYsNpcN4-180" value="1.39" style="connectable=0;recursiveResize=0;align=center;whiteSpace=wrap;html=1;strokeColor=default;fontSize=15;" parent="zGnTky7noTmnoYsNpcN4-174" vertex="1">
          <mxGeometry x="457" width="71" height="46" as="geometry">
            <mxRectangle width="71" height="46" as="alternateBounds" />
          </mxGeometry>
        </mxCell>
        <mxCell id="zGnTky7noTmnoYsNpcN4-181" value="0.278" style="connectable=0;recursiveResize=0;align=center;whiteSpace=wrap;html=1;strokeColor=default;fontSize=15;" parent="zGnTky7noTmnoYsNpcN4-174" vertex="1">
          <mxGeometry x="528" width="71" height="46" as="geometry">
            <mxRectangle width="71" height="46" as="alternateBounds" />
          </mxGeometry>
        </mxCell>
        <mxCell id="zGnTky7noTmnoYsNpcN4-182" style="shape=tableRow;horizontal=0;startSize=0;swimlaneHead=0;swimlaneBody=0;top=0;left=0;bottom=0;right=0;dropTarget=0;collapsible=0;recursiveResize=0;expand=0;fontStyle=0;strokeColor=default;fontSize=15;" parent="zGnTky7noTmnoYsNpcN4-149" vertex="1">
          <mxGeometry y="244" width="599.2689999999998" height="46" as="geometry" />
        </mxCell>
        <mxCell id="zGnTky7noTmnoYsNpcN4-183" value="Curved45" style="connectable=0;recursiveResize=0;align=center;whiteSpace=wrap;html=1;strokeColor=default;fontSize=15;" parent="zGnTky7noTmnoYsNpcN4-182" vertex="1">
          <mxGeometry width="113" height="46" as="geometry">
            <mxRectangle width="113" height="46" as="alternateBounds" />
          </mxGeometry>
        </mxCell>
        <mxCell id="zGnTky7noTmnoYsNpcN4-184" value="1" style="connectable=0;recursiveResize=0;align=center;whiteSpace=wrap;html=1;strokeColor=default;fontSize=15;" parent="zGnTky7noTmnoYsNpcN4-182" vertex="1">
          <mxGeometry x="113" width="78" height="46" as="geometry">
            <mxRectangle width="78" height="46" as="alternateBounds" />
          </mxGeometry>
        </mxCell>
        <mxCell id="zGnTky7noTmnoYsNpcN4-185" value="18.2" style="connectable=0;recursiveResize=0;align=center;whiteSpace=wrap;html=1;strokeColor=default;fontSize=15;" parent="zGnTky7noTmnoYsNpcN4-182" vertex="1">
          <mxGeometry x="191" width="78" height="46" as="geometry">
            <mxRectangle width="78" height="46" as="alternateBounds" />
          </mxGeometry>
        </mxCell>
        <mxCell id="zGnTky7noTmnoYsNpcN4-186" value="1.82" style="connectable=0;recursiveResize=0;align=center;whiteSpace=wrap;html=1;strokeColor=default;fontSize=15;" parent="zGnTky7noTmnoYsNpcN4-182" vertex="1">
          <mxGeometry x="269" width="94" height="46" as="geometry">
            <mxRectangle width="94" height="46" as="alternateBounds" />
          </mxGeometry>
        </mxCell>
        <mxCell id="zGnTky7noTmnoYsNpcN4-187" value="0.364" style="connectable=0;recursiveResize=0;align=center;whiteSpace=wrap;html=1;strokeColor=default;fontSize=15;" parent="zGnTky7noTmnoYsNpcN4-182" vertex="1">
          <mxGeometry x="363" width="94" height="46" as="geometry">
            <mxRectangle width="94" height="46" as="alternateBounds" />
          </mxGeometry>
        </mxCell>
        <mxCell id="zGnTky7noTmnoYsNpcN4-188" value="1.82" style="connectable=0;recursiveResize=0;align=center;whiteSpace=wrap;html=1;strokeColor=default;fontSize=15;" parent="zGnTky7noTmnoYsNpcN4-182" vertex="1">
          <mxGeometry x="457" width="71" height="46" as="geometry">
            <mxRectangle width="71" height="46" as="alternateBounds" />
          </mxGeometry>
        </mxCell>
        <mxCell id="zGnTky7noTmnoYsNpcN4-189" value="0.364" style="connectable=0;recursiveResize=0;align=center;whiteSpace=wrap;html=1;strokeColor=default;fontSize=15;" parent="zGnTky7noTmnoYsNpcN4-182" vertex="1">
          <mxGeometry x="528" width="71" height="46" as="geometry">
            <mxRectangle width="71" height="46" as="alternateBounds" />
          </mxGeometry>
        </mxCell>
        <mxCell id="zGnTky7noTmnoYsNpcN4-190" style="shape=tableRow;horizontal=0;startSize=0;swimlaneHead=0;swimlaneBody=0;top=0;left=0;bottom=0;right=0;dropTarget=0;collapsible=0;recursiveResize=0;expand=0;fontStyle=0;strokeColor=default;fontSize=15;" parent="zGnTky7noTmnoYsNpcN4-149" vertex="1">
          <mxGeometry y="290" width="599.2689999999998" height="46" as="geometry" />
        </mxCell>
        <mxCell id="zGnTky7noTmnoYsNpcN4-191" value="Curved90" style="connectable=0;recursiveResize=0;align=center;whiteSpace=wrap;html=1;strokeColor=default;fontSize=15;" parent="zGnTky7noTmnoYsNpcN4-190" vertex="1">
          <mxGeometry width="113" height="46" as="geometry">
            <mxRectangle width="113" height="46" as="alternateBounds" />
          </mxGeometry>
        </mxCell>
        <mxCell id="zGnTky7noTmnoYsNpcN4-192" value="1" style="connectable=0;recursiveResize=0;align=center;whiteSpace=wrap;html=1;strokeColor=default;fontSize=15;" parent="zGnTky7noTmnoYsNpcN4-190" vertex="1">
          <mxGeometry x="113" width="78" height="46" as="geometry">
            <mxRectangle width="78" height="46" as="alternateBounds" />
          </mxGeometry>
        </mxCell>
        <mxCell id="zGnTky7noTmnoYsNpcN4-193" value="34" style="connectable=0;recursiveResize=0;align=center;whiteSpace=wrap;html=1;strokeColor=default;fontSize=15;" parent="zGnTky7noTmnoYsNpcN4-190" vertex="1">
          <mxGeometry x="191" width="78" height="46" as="geometry">
            <mxRectangle width="78" height="46" as="alternateBounds" />
          </mxGeometry>
        </mxCell>
        <mxCell id="zGnTky7noTmnoYsNpcN4-194" value="3.4" style="connectable=0;recursiveResize=0;align=center;whiteSpace=wrap;html=1;strokeColor=default;fontSize=15;" parent="zGnTky7noTmnoYsNpcN4-190" vertex="1">
          <mxGeometry x="269" width="94" height="46" as="geometry">
            <mxRectangle width="94" height="46" as="alternateBounds" />
          </mxGeometry>
        </mxCell>
        <mxCell id="zGnTky7noTmnoYsNpcN4-195" value="0.68" style="connectable=0;recursiveResize=0;align=center;whiteSpace=wrap;html=1;strokeColor=default;fontSize=15;" parent="zGnTky7noTmnoYsNpcN4-190" vertex="1">
          <mxGeometry x="363" width="94" height="46" as="geometry">
            <mxRectangle width="94" height="46" as="alternateBounds" />
          </mxGeometry>
        </mxCell>
        <mxCell id="zGnTky7noTmnoYsNpcN4-196" value="3.4" style="connectable=0;recursiveResize=0;align=center;whiteSpace=wrap;html=1;strokeColor=default;fontSize=15;" parent="zGnTky7noTmnoYsNpcN4-190" vertex="1">
          <mxGeometry x="457" width="71" height="46" as="geometry">
            <mxRectangle width="71" height="46" as="alternateBounds" />
          </mxGeometry>
        </mxCell>
        <mxCell id="zGnTky7noTmnoYsNpcN4-197" value="0.68" style="connectable=0;recursiveResize=0;align=center;whiteSpace=wrap;html=1;strokeColor=default;fontSize=15;" parent="zGnTky7noTmnoYsNpcN4-190" vertex="1">
          <mxGeometry x="528" width="71" height="46" as="geometry">
            <mxRectangle width="71" height="46" as="alternateBounds" />
          </mxGeometry>
        </mxCell>
        <mxCell id="zGnTky7noTmnoYsNpcN4-206" value="Assets" style="childLayout=tableLayout;recursiveResize=0;shadow=1;strokeWidth=1.5;rounded=0;glass=0;strokeColor=#000000;fillColor=default;fontSize=15;" parent="1" vertex="1">
          <mxGeometry x="161.997" y="486.2195" width="502.5" height="114" as="geometry" />
        </mxCell>
        <mxCell id="zGnTky7noTmnoYsNpcN4-207" style="shape=tableRow;horizontal=0;startSize=0;swimlaneHead=0;swimlaneBody=0;top=0;left=0;bottom=0;right=0;dropTarget=0;collapsible=0;recursiveResize=0;expand=0;fontStyle=0;fillColor=#cdeb8b;strokeColor=#000000;fontSize=15;" parent="zGnTky7noTmnoYsNpcN4-206" vertex="1">
          <mxGeometry width="502.5" height="57" as="geometry" />
        </mxCell>
        <mxCell id="zGnTky7noTmnoYsNpcN4-208" value="&amp;nbsp; Total Cost (RON) :&amp;nbsp; &amp;nbsp; &amp;nbsp; &amp;nbsp; &amp;nbsp; &amp;nbsp; &amp;nbsp; &amp;nbsp; &amp;nbsp; &amp;nbsp; &amp;nbsp; &amp;nbsp; &amp;nbsp; &amp;nbsp; &amp;nbsp; &amp;nbsp; &amp;nbsp; &amp;nbsp; &amp;nbsp; &amp;nbsp; &amp;nbsp; &amp;nbsp; &amp;nbsp; &amp;nbsp; &amp;nbsp; &amp;nbsp; &amp;nbsp; &amp;nbsp; &amp;nbsp; &amp;nbsp; &amp;nbsp; &amp;nbsp; &amp;nbsp; &amp;nbsp; &amp;nbsp; &amp;nbsp; &amp;nbsp; &amp;nbsp; &amp;nbsp;&lt;u&gt;8.79&lt;/u&gt;" style="connectable=0;recursiveResize=0;align=left;fontStyle=1;html=1;fillColor=#dae8fc;strokeColor=#000000;rowspan=1;colspan=7;fontSize=15;" parent="zGnTky7noTmnoYsNpcN4-207" vertex="1">
          <mxGeometry width="503" height="57" as="geometry">
            <mxRectangle width="99" height="57" as="alternateBounds" />
          </mxGeometry>
        </mxCell>
        <mxCell id="zGnTky7noTmnoYsNpcN4-209" value="Unit" style="connectable=0;recursiveResize=0;align=center;fontStyle=1;html=1;fillColor=#cdeb8b;strokeColor=default;" parent="zGnTky7noTmnoYsNpcN4-207" vertex="1" visible="0">
          <mxGeometry x="99" width="67" height="57" as="geometry">
            <mxRectangle width="67" height="57" as="alternateBounds" />
          </mxGeometry>
        </mxCell>
        <mxCell id="zGnTky7noTmnoYsNpcN4-210" value="Quantity" style="connectable=0;recursiveResize=0;align=center;fontStyle=1;html=1;fillColor=#cdeb8b;strokeColor=default;" parent="zGnTky7noTmnoYsNpcN4-207" vertex="1" visible="0">
          <mxGeometry x="166" width="68" height="57" as="geometry">
            <mxRectangle width="68" height="57" as="alternateBounds" />
          </mxGeometry>
        </mxCell>
        <mxCell id="zGnTky7noTmnoYsNpcN4-211" value="Price / Unit&lt;br&gt;RON" style="connectable=0;recursiveResize=0;align=center;fontStyle=1;html=1;fillColor=#cdeb8b;strokeColor=default;" parent="zGnTky7noTmnoYsNpcN4-207" vertex="1" visible="0">
          <mxGeometry x="234" width="82" height="57" as="geometry">
            <mxRectangle width="82" height="57" as="alternateBounds" />
          </mxGeometry>
        </mxCell>
        <mxCell id="zGnTky7noTmnoYsNpcN4-212" value="Price / Unit&lt;br&gt;EUR" style="connectable=0;recursiveResize=0;align=center;fontStyle=1;html=1;fillColor=#cdeb8b;strokeColor=default;" parent="zGnTky7noTmnoYsNpcN4-207" vertex="1" visible="0">
          <mxGeometry x="316" width="84" height="57" as="geometry">
            <mxRectangle width="84" height="57" as="alternateBounds" />
          </mxGeometry>
        </mxCell>
        <mxCell id="zGnTky7noTmnoYsNpcN4-213" value="Value&lt;br&gt;RON" style="connectable=0;recursiveResize=0;align=center;fontStyle=1;html=1;fillColor=#cdeb8b;strokeColor=default;" parent="zGnTky7noTmnoYsNpcN4-207" vertex="1" visible="0">
          <mxGeometry x="400" width="54" height="57" as="geometry">
            <mxRectangle width="54" height="57" as="alternateBounds" />
          </mxGeometry>
        </mxCell>
        <mxCell id="zGnTky7noTmnoYsNpcN4-214" value="Value&lt;br&gt;EUR" style="connectable=0;recursiveResize=0;align=center;fontStyle=1;html=1;fillColor=#cdeb8b;strokeColor=default;" parent="zGnTky7noTmnoYsNpcN4-207" vertex="1" visible="0">
          <mxGeometry x="454" width="49" height="57" as="geometry">
            <mxRectangle width="49" height="57" as="alternateBounds" />
          </mxGeometry>
        </mxCell>
        <mxCell id="zGnTky7noTmnoYsNpcN4-215" style="shape=tableRow;horizontal=0;startSize=0;swimlaneHead=0;swimlaneBody=0;top=0;left=0;bottom=0;right=0;dropTarget=0;collapsible=0;recursiveResize=0;expand=0;fontStyle=0;fillColor=#cdeb8b;strokeColor=#000000;fontSize=15;" parent="zGnTky7noTmnoYsNpcN4-206" vertex="1">
          <mxGeometry y="57" width="502.5" height="57" as="geometry" />
        </mxCell>
        <mxCell id="zGnTky7noTmnoYsNpcN4-216" value="&amp;nbsp; Total Cost (EUR) :&amp;nbsp; &amp;nbsp; &amp;nbsp; &amp;nbsp; &amp;nbsp; &amp;nbsp; &amp;nbsp; &amp;nbsp; &amp;nbsp; &amp;nbsp; &amp;nbsp; &amp;nbsp; &amp;nbsp; &amp;nbsp; &amp;nbsp; &amp;nbsp; &amp;nbsp; &amp;nbsp; &amp;nbsp; &amp;nbsp; &amp;nbsp; &amp;nbsp; &amp;nbsp; &amp;nbsp; &amp;nbsp; &amp;nbsp; &amp;nbsp; &amp;nbsp; &amp;nbsp; &amp;nbsp; &amp;nbsp; &amp;nbsp; &amp;nbsp; &amp;nbsp; &amp;nbsp; &amp;nbsp; &amp;nbsp; &amp;nbsp; &lt;u&gt;1.758&lt;/u&gt;" style="connectable=0;recursiveResize=0;align=left;fontStyle=1;html=1;fillColor=#dae8fc;strokeColor=#000000;rowspan=1;colspan=7;fontSize=15;" parent="zGnTky7noTmnoYsNpcN4-215" vertex="1">
          <mxGeometry width="503" height="57" as="geometry">
            <mxRectangle width="99" height="57" as="alternateBounds" />
          </mxGeometry>
        </mxCell>
        <mxCell id="zGnTky7noTmnoYsNpcN4-217" style="connectable=0;recursiveResize=0;align=center;fontStyle=1;html=1;fillColor=#cdeb8b;strokeColor=default;" parent="zGnTky7noTmnoYsNpcN4-215" vertex="1" visible="0">
          <mxGeometry x="99" width="67" height="57" as="geometry">
            <mxRectangle width="67" height="57" as="alternateBounds" />
          </mxGeometry>
        </mxCell>
        <mxCell id="zGnTky7noTmnoYsNpcN4-218" style="connectable=0;recursiveResize=0;align=center;fontStyle=1;html=1;fillColor=#cdeb8b;strokeColor=default;" parent="zGnTky7noTmnoYsNpcN4-215" vertex="1" visible="0">
          <mxGeometry x="166" width="68" height="57" as="geometry">
            <mxRectangle width="68" height="57" as="alternateBounds" />
          </mxGeometry>
        </mxCell>
        <mxCell id="zGnTky7noTmnoYsNpcN4-219" style="connectable=0;recursiveResize=0;align=center;fontStyle=1;html=1;fillColor=#cdeb8b;strokeColor=default;" parent="zGnTky7noTmnoYsNpcN4-215" vertex="1" visible="0">
          <mxGeometry x="234" width="82" height="57" as="geometry">
            <mxRectangle width="82" height="57" as="alternateBounds" />
          </mxGeometry>
        </mxCell>
        <mxCell id="zGnTky7noTmnoYsNpcN4-220" style="connectable=0;recursiveResize=0;align=center;fontStyle=1;html=1;fillColor=#cdeb8b;strokeColor=default;" parent="zGnTky7noTmnoYsNpcN4-215" vertex="1" visible="0">
          <mxGeometry x="316" width="84" height="57" as="geometry">
            <mxRectangle width="84" height="57" as="alternateBounds" />
          </mxGeometry>
        </mxCell>
        <mxCell id="zGnTky7noTmnoYsNpcN4-221" style="connectable=0;recursiveResize=0;align=center;fontStyle=1;html=1;fillColor=#cdeb8b;strokeColor=default;" parent="zGnTky7noTmnoYsNpcN4-215" vertex="1" visible="0">
          <mxGeometry x="400" width="54" height="57" as="geometry">
            <mxRectangle width="54" height="57" as="alternateBounds" />
          </mxGeometry>
        </mxCell>
        <mxCell id="zGnTky7noTmnoYsNpcN4-222" style="connectable=0;recursiveResize=0;align=center;fontStyle=1;html=1;fillColor=#cdeb8b;strokeColor=default;" parent="zGnTky7noTmnoYsNpcN4-215" vertex="1" visible="0">
          <mxGeometry x="454" width="49" height="57" as="geometry">
            <mxRectangle width="49" height="57" as="alternateBounds" />
          </mxGeometry>
        </mxCell>
      </root>
    </mxGraphModel>
  </diagram>
</mxfile>
